<svg width="41" height="41" viewBox="0 0 41 41" fill="none" xmlns="http://www.w3.org/2000/svg">
<path d="M41 20.5C41 9.17695 31.8231 0 20.5 0C9.17695 0 0 9.17695 0 20.5C0 31.8231 9.17695 41 20.5 41C20.6201 41 20.7403 41 20.8604 40.9919V25.0405H16.456V19.9074H20.8604V16.1278C20.8604 11.7475 23.535 9.36113 27.4428 9.36113C29.3166 9.36113 30.9262 9.49727 31.3907 9.56132V14.1419H28.7C26.578 14.1419 26.1616 15.1507 26.1616 16.6322V19.8994H31.2465L30.5819 25.0324H26.1616V40.2072C34.7299 37.7488 41 29.8611 41 20.5Z" fill="#6B8FFF"/>
</svg>
