<svg width="33" height="26" viewBox="0 0 33 26" fill="none" xmlns="http://www.w3.org/2000/svg">
<path d="M31.0874 1.91853C30.402 1.28235 29.5076 0.932129 28.5693 0.932129C27.5499 0.932129 26.5662 1.35597 25.8701 2.09521L12.7344 16.0615L6.41765 9.34622C5.72242 8.60703 4.7392 8.18298 3.72027 8.18298C2.78175 8.18298 1.88642 8.53383 1.19904 9.17069C0.478958 9.83824 0.0640978 10.7448 0.0307637 11.7234C-0.00283374 12.702 0.349465 13.6345 1.02247 14.3488L9.98819 23.8807C10.5663 24.497 11.3316 24.8829 12.1843 24.9948C12.1959 24.9968 12.2075 24.9983 12.2204 24.9996C12.2269 25.0007 12.2334 25.0195 12.2397 25.0202C12.4164 25.0408 12.5615 25.068 12.6972 25.068H12.7274H12.7526V25.05C12.9706 25.05 13.0401 25.0318 13.219 25.0111C13.2258 25.0102 13.2374 25.005 13.2443 25.0039C13.2511 25.003 13.2635 24.9996 13.2659 24.9991C14.1322 24.885 14.8978 24.498 15.4782 23.882L31.2647 7.09891C32.6538 5.6233 32.5749 3.29892 31.0874 1.91853ZM30.6279 6.50775L14.8421 23.29C14.4015 23.7579 13.8175 24.0517 13.1479 24.1398C13.1419 24.1407 13.1229 24.1417 13.1133 24.1432C12.9711 24.1597 12.9703 24.1848 12.7523 24.1848V24.2028H12.7274H12.6974C12.5975 24.2028 12.4907 24.1779 12.3518 24.1622C12.3409 24.1604 12.3291 24.1498 12.3156 24.1483C11.6492 24.0606 11.0651 23.7627 10.6261 23.2947L1.65945 13.7598C1.14559 13.2141 0.876597 12.5011 0.902085 11.7539C0.927573 11.0067 1.24438 10.3138 1.79416 9.80426C2.31934 9.31762 3.00345 9.04902 3.72027 9.04902C4.50991 9.04902 5.24153 9.36442 5.78045 9.93738L12.4157 16.9912C12.5805 17.1667 12.8881 17.1666 13.0529 16.9912L26.5072 2.68653C27.0465 2.11335 27.779 1.79796 28.5693 1.79796C29.2858 1.79796 29.9687 2.0653 30.4921 2.55079C31.6281 3.60543 31.6891 5.38043 30.6279 6.50775Z" fill="black"/>
</svg>
