<svg width="42" height="42" viewBox="0 0 42 42" fill="none" xmlns="http://www.w3.org/2000/svg">
<g clip-path="url(#clip0)">
<path d="M29 15H26V18H29V15Z" fill="#6B8FFF"/>
<path d="M26.101 21.0897C26.101 23.8476 23.8125 26.0917 21 26.0917C18.1871 26.0917 15.8987 23.8476 15.8987 21.0897C15.8987 20.3433 16.0709 19.6369 16.371 19H13V27.5864C13 28.3658 13.6467 29 14.4416 29H27.5584C28.3533 29 29 28.3658 29 27.5864V19.0003H25.6286C25.9287 19.6372 26.101 20.3433 26.101 21.0897Z" fill="#6B8FFF"/>
<path d="M21.0002 24C22.6539 24 24 22.6825 24 21.063C24 20.2595 23.6682 19.531 23.1322 19H18.8674C18.3318 19.5307 18 20.2595 18 21.063C18 22.6825 19.3457 24 21.0002 24Z" fill="#6B8FFF"/>
<path d="M20.9568 -0.0518799C9.35914 -0.0518799 -0.0428209 9.34794 -0.0428209 20.9425C-0.0428209 32.5368 9.35914 41.9377 20.9568 41.9377C32.5545 41.9377 41.9572 32.5371 41.9572 20.9425C41.9568 9.34794 32.5545 -0.0518799 20.9568 -0.0518799ZM31.5665 27.8869C31.5665 29.9252 29.9078 31.5839 27.8686 31.5839H14.0451C12.0062 31.5839 10.3472 29.9256 10.3472 27.8869V14.0036C10.3472 11.9653 12.0058 10.3067 14.0451 10.3067H27.8686C29.9074 10.3067 31.5665 11.9649 31.5665 14.0036V27.8869Z" fill="#6B8FFF"/>
</g>
<defs>
<clipPath id="clip0">
<rect width="42" height="42" fill="white"/>
</clipPath>
</defs>
</svg>
